HIERARCHY
ROOT Hips
{
	OFFSET 0.00000 0.00000 0.00000
	CHANNELS 6 Xposition Yposition Zposition Zrotation Yrotation Xrotation 
	JOINT LHipJoint
	{
		OFFSET 0 0 0
		CHANNELS 3 Zrotation Yrotation Xrotation
		JOINT LeftUpLeg
		{
			OFFSET 1.39187 -1.60231 0.69152
			CHANNELS 3 Zrotation Yrotation Xrotation
			JOINT LeftLeg
			{
				OFFSET 2.43314 -6.68499 0.00000
				CHANNELS 3 Zrotation Yrotation Xrotation
				JOINT LeftFoot
				{
					OFFSET 2.32059 -6.37578 0.00000
					CHANNELS 3 Zrotation Yrotation Xrotation
					JOINT LeftToeBase
					{
						OFFSET 0.23021 -0.63250 1.71305
						CHANNELS 3 Zrotation Yrotation Xrotation
						End Site
						{
							OFFSET 0.00000 -0.00000 0.91647
						}
					}
				}
			}
		}
	}
	JOINT RHipJoint
	{
		OFFSET 0 0 0
		CHANNELS 3 Zrotation Yrotation Xrotation
		JOINT RightUpLeg
		{
			OFFSET -1.19407 -1.60231 0.69152
			CHANNELS 3 Zrotation Yrotation Xrotation
			JOINT RightLeg
			{
				OFFSET -2.44411 -6.71513 0.00000
				CHANNELS 3 Zrotation Yrotation Xrotation
				JOINT RightFoot
				{
					OFFSET -2.31924 -6.37207 0.00000
					CHANNELS 3 Zrotation Yrotation Xrotation
					JOINT RightToeBase
					{
						OFFSET -0.19473 -0.53502 1.87724
						CHANNELS 3 Zrotation Yrotation Xrotation
						End Site
						{
							OFFSET -0.00000 -0.00000 0.98293
						}
					}
				}
			}
		}
	}
	JOINT LowerBack
	{
		OFFSET 0 0 0
		CHANNELS 3 Zrotation Yrotation Xrotation
		JOINT Spine
		{
			OFFSET -0.01120 1.87307 0.09613
			CHANNELS 3 Zrotation Yrotation Xrotation
			JOINT Spine1
			{
				OFFSET 0.01099 1.87818 0.04834
				CHANNELS 3 Zrotation Yrotation Xrotation
				JOINT Neck
				{
					OFFSET 0 0 0
					CHANNELS 3 Zrotation Yrotation Xrotation
					JOINT Neck1
					{
						OFFSET 0.01702 1.40324 -0.12579
						CHANNELS 3 Zrotation Yrotation Xrotation
						JOINT Head
						{
							OFFSET -0.04239 1.38587 -0.01614
							CHANNELS 3 Zrotation Yrotation Xrotation
							End Site
							{
								OFFSET -0.02510 1.47031 -0.00154
							}
						}
					}
				}
				JOINT LeftShoulder
				{
					OFFSET 0 0 0
					CHANNELS 3 Zrotation Yrotation Xrotation
					JOINT LeftArm
					{
						OFFSET 2.95699 0.62343 0.11653
						CHANNELS 3 Zrotation Yrotation Xrotation
						JOINT LeftForeArm
						{
							OFFSET 4.68382 -0.00000 -0.00000
							CHANNELS 3 Zrotation Yrotation Xrotation
							JOINT LeftHand
							{
								OFFSET 2.98124 -0.00000 -0.00000
								CHANNELS 3 Zrotation Yrotation Xrotation
								JOINT LeftFingerBase
								{
									OFFSET 0 0 0
									CHANNELS 3 Zrotation Yrotation Xrotation
									JOINT LeftHandIndex1
									{
										OFFSET 0.70759 -0.00000 0.00000
										CHANNELS 3 Zrotation Yrotation Xrotation
										End Site
										{
											OFFSET 0.57048 -0.00000 0.00000
										}
									}
								}
								JOINT LThumb
								{
									OFFSET 0 0 0
									CHANNELS 3 Zrotation Yrotation Xrotation
									End Site
									{
										OFFSET 0.57919 -0.00000 0.57919
									}
								}
							}
						}
					}
				}
				JOINT RightShoulder
				{
					OFFSET 0 0 0
					CHANNELS 3 Zrotation Yrotation Xrotation
					JOINT RightArm
					{
						OFFSET -2.99027 0.88714 -0.02793
						CHANNELS 3 Zrotation Yrotation Xrotation
						JOINT RightForeArm
						{
							OFFSET -4.75876 -0.00000 -0.00000
							CHANNELS 3 Zrotation Yrotation Xrotation
							JOINT RightHand
							{
								OFFSET -2.93293 -0.00000 -0.00000
								CHANNELS 3 Zrotation Yrotation Xrotation
								JOINT RightFingerBase
								{
									OFFSET 0 0 0
									CHANNELS 3 Zrotation Yrotation Xrotation
									JOINT RightHandIndex1
									{
										OFFSET -0.83175 -0.00000 0.00000
										CHANNELS 3 Zrotation Yrotation Xrotation
										End Site
										{
											OFFSET -0.67058 -0.00000 0.00000
										}
									}
								}
								JOINT RThumb
								{
									OFFSET 0 0 0
									CHANNELS 3 Zrotation Yrotation Xrotation
									End Site
									{
										OFFSET -0.68082 -0.00000 0.68082
									}
								}
							}
						}
					}
				}
			}
		}
	}
}
MOTION
Frames: 9
Frame Time: .0083333
8.2456 27.3472 1.1671 0 0 0 0 0 0 -21 0 0 0 0 0 0 0 0 0 0 0 0 0 0 21 0 0 0 0 0 0 0 0 0 0 0 0 0 0 0 0 0 0 0 0 0 0 -16 0 0 21 0 0 11 0 0 0 -8 0 0 0 0 0 0 0 0 0 0 0 0 0 0 0 0 0 0 0 0 8 0 0 0 0 0 0 0 0 0 0 0 0 0 0 0 0 0
8.2456 27.3472 1.1671 169.0710 -85.5517 -154.0340 0.0000 0.0000 0.0000 -18.4315 -18.2115 -16.0118 1.6032 7.9855 22.6700 0.6950 8.0035 -20.6317 0.1036 2.0752 5.7136 0.0000 0.0000 0.0000 15.7118 20.5077 -16.5084 -1.4830 -7.6942 21.7890 0.8190 -16.3361 -10.6537 -0.5420 4.7169 -13.1029 -3.6943 -0.9875 -16.1320 -0.4664 -0.8694 -3.7159 1.4157 -0.5556 5.1177 -10.4547 -6.5143 1.1473 10.7761 -9.7613 9.3767 4.6460 -4.9392 3.6275 -0.0000 -0.0000 0.0000 -21.3335 -43.8386 -21.0348 111.4890 -58.1812 -78.4964 -0.0000 -0.0000 14.6299 23.7875 20.2761 8.6850 -7.1250 0.0000 -0.0000 -4.7978 51.9032 -0.8171 -0.0000 -0.0000 0.0000 50.3383 23.2471 -10.3162 -146.0002 44.0846 -105.8871 0.0000 0.0000 0.4581 -37.8654 11.0618 -8.4847 7.1250 -0.0000 -0.0000 -7.4287 -16.1474 -5.1133
8.2477 27.3463 1.1690 168.0360 -85.5387 -152.9430 0.0000 0.0000 0.0000 -18.5096 -18.1599 -16.0371 1.5878 7.9488 22.5586 0.6934 7.9089 -20.5373 0.0912 1.9478 5.3615 0.0000 0.0000 0.0000 15.5786 20.5469 -16.6362 -1.4997 -7.7354 21.9131 0.8217 -16.3717 -10.7160 -0.5400 4.7083 -13.0785 -3.7970 -1.0157 -16.0573 -0.4678 -0.9013 -3.8255 1.4677 -0.5710 4.9635 -10.4369 -6.5182 1.2266 10.5712 -9.7570 9.4207 4.5824 -4.9449 3.6170 0.0000 0.0000 0.0000 -21.3442 -43.8178 -21.1013 111.4333 -58.1910 -78.4490 -0.0000 -0.0000 14.6644 23.8889 20.2205 8.7035 -7.1250 0.0000 -0.0000 -4.6800 51.8623 -0.7922 0.0000 0.0000 0.0000 50.3244 23.1415 -10.1659 -145.9701 44.1068 -105.8662 0.0000 0.0000 0.5077 -37.7425 10.9811 -8.3878 7.1250 -0.0000 -0.0000 -7.3574 -16.2670 -5.0441
8.2469 27.3470 1.1708 166.3660 -85.4325 -151.2560 0.0000 0.0000 0.0000 -18.6863 -18.1799 -16.0761 1.5939 7.9633 22.6026 0.6932 7.9235 -20.5479 0.1066 2.1049 5.7957 0.0000 0.0000 0.0000 15.3851 20.5511 -16.6330 -1.4945 -7.7226 21.8746 0.8171 -16.3477 -10.7755 -0.5307 4.6680 -12.9640 -3.9588 -1.0168 -16.0843 -0.5303 -0.8764 -3.8694 1.4981 -0.5608 4.9306 -10.3034 -6.5348 1.3742 10.3563 -9.7652 9.3416 4.5005 -4.9553 3.5536 -0.0000 -0.0000 0.0000 -21.1178 -43.9624 -21.3947 111.4405 -58.1897 -78.4551 -0.0000 -0.0000 14.5934 23.8163 20.2950 8.7043 -7.1250 0.0000 -0.0000 -4.7739 51.9284 -0.8159 -0.0000 -0.0000 0.0000 50.4127 23.0263 -10.0709 -145.9915 44.0911 -105.8810 0.0000 0.0000 0.5114 -37.5659 10.9970 -8.3470 7.1250 -0.0000 -0.0000 -7.2350 -16.2763 -4.9574
8.2472 27.3476 1.1744 166.2310 -85.3567 -151.1400 0.0000 0.0000 0.0000 -18.7481 -18.1212 -16.0851 1.5943 7.9643 22.6056 0.6944 7.9176 -20.5545 0.1424 2.4320 6.7012 0.0000 0.0000 0.0000 15.3404 20.5437 -16.6527 -1.4944 -7.7224 21.8739 0.8036 -16.2939 -11.0179 -0.4866 4.4729 -12.4111 -3.9669 -1.0002 -16.1137 -0.5631 -0.8465 -3.8204 1.4731 -0.5470 4.9966 -10.2440 -6.5756 1.4144 10.2320 -9.7974 9.2093 4.4536 -4.9727 3.5026 0.0000 -0.0000 0.0000 -20.6502 -44.2096 -21.9414 111.4099 -58.1951 -78.4291 -0.0000 -0.0000 14.4624 23.6990 20.5098 8.7432 -7.1250 0.0000 -0.0000 -4.9534 52.1348 -0.8718 0.0000 -0.0000 0.0000 50.4997 23.0297 -10.0995 -146.1192 43.9962 -105.9698 0.0000 0.0000 0.3773 -37.1685 10.9467 -8.1928 7.1250 -0.0000 -0.0000 -6.9720 -16.4019 -4.7553
8.2466 27.3482 1.1781 167.1280 -85.3178 -152.0220 0.0000 0.0000 0.0000 -18.6965 -18.0233 -16.1094 1.5910 7.9565 22.5822 0.7051 7.8419 -20.5964 0.1696 2.6532 7.3147 0.0000 0.0000 0.0000 15.3847 20.6061 -16.7053 -1.4974 -7.7298 21.8963 0.7704 -16.2448 -11.8699 -0.3158 3.6122 -9.9882 -3.8937 -0.9928 -16.1985 -0.5509 -0.8379 -3.7187 1.4445 -0.5437 5.1496 -10.1082 -6.5993 1.3449 10.0066 -9.7802 9.0334 4.3626 -4.9615 3.4432 -0.0000 -0.0000 0.0000 -20.3580 -44.2898 -22.4031 111.3649 -58.2030 -78.3909 -0.0000 -0.0000 14.3414 23.7982 20.6922 8.8573 -7.1250 0.0000 -0.0000 -4.9056 52.3458 -0.8888 -0.0000 -0.0000 0.0000 50.5406 23.1626 -10.1608 -146.2138 43.9257 -106.0354 0.0000 0.0000 0.3561 -36.5825 10.8502 -7.9534 7.1250 -0.0000 -0.0000 -6.5860 -16.6118 -4.4581
8.2431 27.3484 1.1821 167.7940 -85.2677 -152.6620 0.0000 0.0000 0.0000 -18.6516 -18.1033 -16.0331 1.5857 7.9438 22.5436 0.7099 7.9229 -20.7104 0.1573 2.5556 7.0438 0.0000 0.0000 0.0000 15.4001 20.6730 -16.7228 -1.5022 -7.7415 21.9315 0.8155 -16.3613 -10.8926 -0.5074 4.5660 -12.6747 -3.8387 -1.0078 -16.3213 -0.5385 -0.8555 -3.6263 1.4206 -0.5539 5.3150 -9.7618 -6.5548 1.2486 9.6287 -9.6576 8.8616 4.1964 -4.8953 3.3616 -0.0000 -0.0000 0.0000 -20.3060 -44.1742 -22.6854 111.2874 -58.2165 -78.3250 -0.0000 -0.0000 14.2855 24.3519 20.7088 9.0931 -7.1250 0.0000 -0.0000 -4.3480 52.4649 -0.8001 -0.0000 -0.0000 0.0000 50.5963 23.3245 -10.1166 -146.1810 43.9502 -106.0127 0.0000 0.0000 0.4375 -36.4410 10.9111 -7.9563 7.1250 -0.0000 -0.0000 -6.4808 -16.5598 -4.3933
8.2440 27.3462 1.1856 166.9630 -85.2159 -151.8250 0.0000 0.0000 0.0000 -18.7234 -18.2345 -15.9281 1.5773 7.9237 22.4827 0.7051 8.0602 -20.7781 0.1188 2.2224 6.1207 0.0000 0.0000 0.0000 15.2868 20.6965 -16.7571 -1.5097 -7.7598 21.9869 0.8202 -16.3592 -10.7144 -0.5556 4.7746 -13.2667 -3.9324 -1.0394 -16.2958 -0.5444 -0.8826 -3.6268 1.4620 -0.5682 5.3030 -9.5493 -6.5307 1.2303 9.3510 -9.5927 8.8098 4.0810 -4.8628 3.3201 -0.0000 0.0000 0.0000 -20.2156 -44.2019 -22.9547 111.2964 -58.2150 -78.3327 -0.0000 -0.0000 14.3235 24.8886 20.7117 9.3181 -7.1250 0.0000 -0.0000 -3.8016 52.5675 -0.7088 -0.0000 0.0000 0.0000 50.6570 23.3869 -10.0370 -146.1308 43.9876 -105.9779 0.0000 0.0000 0.4895 -36.5878 10.9391 -8.0185 7.1250 -0.0000 -0.0000 -6.5772 -16.5030 -4.4677
8.2459 27.3436 1.1876 166.8780 -85.1520 -151.7620 0.0000 0.0000 0.0000 -18.7468 -18.2488 -15.8348 1.5650 7.8942 22.3931 0.7001 8.1530 -20.8075 0.0997 2.0361 5.6054 0.0000 0.0000 0.0000 15.2419 20.8101 -16.7554 -1.5230 -7.7925 22.0857 0.8225 -16.3886 -10.7608 -0.5537 4.7666 -13.2440 -3.9970 -1.0193 -16.1475 -0.5434 -0.8583 -3.7152 1.5072 -0.5545 5.1281 -9.5486 -6.5499 1.4220 9.2587 -9.6252 8.7754 4.0586 -4.8874 3.2773 0.0000 -0.0000 0.0000 -20.1077 -44.3705 -23.1394 111.4801 -58.1828 -78.4888 -0.0000 -0.0000 14.3242 25.0166 20.7503 9.3881 -7.1250 0.0000 -0.0000 -3.6813 52.6325 -0.6922 0.0000 -0.0000 0.0000 50.7439 23.2495 -9.9741 -146.1433 43.9782 -105.9866 0.0000 0.0000 0.5309 -36.6098 10.8376 -7.9522 7.1250 -0.0000 -0.0000 -6.6064 -16.6228 -4.4705
